<?xml version="1.0" standalone="no"?>
<!DOCTYPE svg PUBLIC "-//W3C//DTD SVG 20010904//EN"
 "http://www.w3.org/TR/2001/REC-SVG-20010904/DTD/svg10.dtd">
<svg version="1.0" xmlns="http://www.w3.org/2000/svg"
 width="652.000000pt" height="652.000000pt" viewBox="0 0 652.000000 652.000000"
 preserveAspectRatio="xMidYMid meet">
<metadata>
Created by potrace 1.11, written by Peter Selinger 2001-2013
</metadata>
<g transform="translate(0.000000,652.000000) scale(0.100000,-0.100000)"
fill="#000000" stroke="none">
<path d="M2222 6286 c-51 -18 -96 -34 -100 -36 -4 -1 -14 -5 -22 -8 -154 -54
-535 -239 -560 -272 -3 -4 -12 -10 -20 -14 -27 -12 -127 -77 -160 -103 -8 -6
-51 -39 -95 -72 -44 -33 -92 -70 -106 -83 -15 -13 -51 -43 -80 -68 -68 -58
-197 -187 -276 -275 -299 -338 -513 -710 -653 -1137 -17 -54 -33 -103 -34
-110 -2 -7 -8 -32 -15 -56 -7 -24 -14 -55 -16 -70 -2 -15 -8 -40 -14 -55 -6
-15 -10 -31 -9 -35 1 -4 -1 -20 -5 -37 -7 -30 -8 -38 -26 -155 -26 -165 -35
-553 -18 -735 9 -90 24 -206 31 -225 3 -8 7 -33 10 -55 8 -55 16 -96 23 -120
4 -11 8 -24 9 -30 30 -137 101 -358 159 -490 54 -121 180 -371 195 -385 3 -3
19 -27 34 -54 34 -59 184 -275 206 -296 3 -3 37 -43 76 -90 261 -311 608 -587
984 -783 100 -51 248 -118 335 -150 22 -8 49 -18 60 -23 11 -4 23 -8 28 -9 4
-2 9 -4 12 -5 3 -1 8 -3 13 -5 4 -1 14 -4 22 -8 140 -53 234 -44 298 31 66 76
63 197 -6 268 -20 21 -36 28 -257 109 -436 160 -841 438 -1157 794 -21 24 -38
45 -38 47 0 2 -9 14 -20 27 -12 12 -27 29 -34 37 -25 29 -143 195 -172 243
-16 27 -38 63 -48 80 -87 145 -233 480 -261 600 -3 12 -18 73 -34 135 -16 62
-32 129 -35 150 -3 20 -10 66 -16 102 -31 197 -34 627 -6 760 3 13 7 39 8 58
1 18 6 36 10 38 5 3 6 9 3 14 -16 25 104 448 165 586 29 64 137 283 153 309 7
11 23 38 37 60 14 22 31 52 39 68 8 15 18 27 23 27 4 0 8 5 8 10 0 13 56 89
161 221 79 98 246 270 339 349 125 106 338 260 359 260 5 0 11 4 13 8 3 8 58
40 185 109 120 65 463 203 463 186 0 -4 5 -2 12 5 7 7 19 12 28 12 29 0 98 68
115 114 50 130 -52 268 -195 265 -19 0 -77 -15 -128 -33z"/>
<path d="M4093 6309 c-40 -12 -98 -68 -117 -113 -31 -75 -7 -171 56 -221 18
-14 80 -42 138 -61 446 -149 819 -381 1148 -714 58 -58 116 -121 131 -139 14
-19 41 -51 58 -70 18 -20 33 -39 33 -43 0 -5 8 -16 18 -26 16 -16 156 -223
191 -283 82 -137 218 -446 245 -554 1 -5 9 -30 16 -55 20 -67 19 -62 44 -175
19 -84 25 -119 32 -165 2 -19 6 -46 9 -60 14 -74 19 -176 19 -365 0 -211 -7
-317 -30 -445 -2 -14 -7 -40 -10 -59 -9 -51 -13 -71 -18 -89 -3 -9 -7 -28 -10
-42 -11 -68 -100 -344 -138 -430 -76 -172 -234 -457 -291 -525 -4 -5 -26 -34
-48 -64 -98 -133 -258 -309 -370 -406 -167 -146 -245 -204 -444 -330 -88 -56
-294 -159 -406 -203 -41 -16 -83 -33 -94 -37 -11 -4 -24 -9 -30 -11 -5 -1 -35
-11 -65 -22 -30 -10 -58 -20 -63 -20 -44 -7 -109 -71 -125 -123 -28 -93 6
-179 93 -234 32 -20 136 -30 164 -15 9 4 59 23 111 40 52 17 102 34 110 37 8
4 18 5 23 5 4 -1 7 3 7 8 0 6 8 10 18 10 9 0 34 9 55 20 20 11 38 20 39 19 4
-2 227 107 273 134 33 18 142 85 229 140 29 18 210 149 216 156 3 4 21 19 40
35 150 121 396 367 457 456 9 14 20 27 23 30 23 18 210 286 210 301 0 5 3 9 8
9 4 0 12 10 18 23 32 64 48 92 54 97 6 5 124 239 126 250 0 3 11 28 23 55 25
55 81 201 86 225 2 8 8 29 15 45 13 34 60 199 65 230 2 11 10 49 19 85 8 36
17 83 21 105 3 22 8 51 10 65 2 14 7 48 10 75 2 28 8 79 12 115 10 82 10 495
0 575 -4 33 -10 82 -13 109 -3 28 -9 70 -14 95 -4 25 -6 49 -4 53 3 5 0 8 -6
8 -6 0 -9 4 -6 8 5 8 3 18 -35 177 -34 145 -134 444 -152 456 -5 3 -9 10 -9
15 -1 19 -12 43 -81 184 -39 80 -75 147 -79 148 -4 2 -8 9 -8 16 0 7 -16 35
-35 62 -19 27 -35 52 -35 56 0 4 -17 30 -37 59 -70 97 -187 254 -198 265 -5 6
-32 37 -60 69 -103 121 -326 333 -430 409 -22 17 -42 33 -45 36 -12 16 -190
135 -312 210 -86 52 -338 182 -338 173 0 -3 -6 -1 -12 5 -19 15 -198 85 -311
121 -100 32 -139 36 -194 20z"/>
<path d="M1718 4823 c-9 -2 -21 -16 -26 -31 -7 -18 -10 -347 -9 -965 1 -515
-2 -937 -6 -937 -5 0 -5 -5 -1 -12 4 -6 8 -269 8 -584 1 -561 1 -573 21 -588
30 -23 1279 -24 1311 -1 31 21 34 49 12 97 -11 24 -24 52 -29 63 -20 47 -32
116 -35 193 -1 46 -4 85 -7 88 -3 3 -2 17 2 32 9 34 -3 90 -24 111 -14 14 -52
16 -296 17 -273 0 -280 1 -301 22 l-22 21 0 1220 c-1 1184 -2 1220 -20 1240
-19 20 -27 21 -290 20 -149 -1 -278 -3 -288 -6z"/>
<path d="M3643 4810 c-95 -34 -179 -106 -220 -190 -9 -19 -18 -39 -19 -45 -2
-5 -7 -26 -13 -45 -8 -24 -11 -427 -11 -1276 0 -1125 2 -1246 17 -1290 31 -94
85 -164 164 -214 91 -59 103 -60 564 -57 l420 2 66 31 c59 28 159 113 159 134
0 5 6 15 13 22 7 7 22 36 32 63 19 47 20 80 21 510 1 253 0 470 -3 481 -8 39
-42 44 -282 44 -177 0 -231 -3 -246 -14 -15 -11 -19 -28 -21 -84 -1 -39 -5
-75 -8 -81 -4 -5 -3 -12 1 -14 9 -6 8 -130 -1 -145 -3 -6 -3 -13 1 -15 9 -6 8
-130 -1 -145 -3 -6 -3 -13 2 -16 4 -2 7 -31 5 -63 -4 -91 -18 -98 -174 -97
-135 1 -168 11 -170 47 -7 112 -3 1807 4 1823 14 34 43 40 175 39 111 -1 125
-3 144 -22 22 -22 29 -63 16 -99 -4 -12 -4 -25 -1 -28 3 -3 6 -101 6 -217 0
-200 1 -212 20 -230 19 -17 31 -23 48 -21 16 2 97 3 224 2 229 -1 223 -2 243
20 18 20 19 41 18 468 l-2 447 -31 65 c-51 110 -141 187 -251 215 -46 13 -132
15 -457 15 -362 -1 -405 -3 -452 -20z"/>
</g>
</svg>
